  0
SECTION
  2
HEADER
  9
$ACADVER
  1
AC1009
  9
$LIMMIN
 10
0.000000
 20
0.000000
  9
$LIMMAX
 10
426.700000
 20
170.245751
  9
$MEASUREMENT
 70
1
  0
ENDSEC
  0
SECTION
  2
TABLES
  0
TABLE
  2
LTYPE
 70
     4
  0
LTYPE
  2
CONTINUOUS
 70
     0
  3
Solid line
 72
     65
 73
     0
 40
0.000000
  0
LTYPE
  2
HIDDEN
 70
     0
  3
 _ _ _ _ _ _ _ _ _ _ _
 72
     65
 73
     2
 40
0.375000
 49
0.250000
 49
-0.125000
  0
LTYPE
  2
DASHED
 70
     0
  3
 ___ ___ ___ ___ ___ ___ ___ 
 72
     65
 73
     2
 40
0.750000
 49
0.500000
 49
-0.250000
  0
LTYPE
  2
CENTER
 70
     0
  3
___ _ ___ _ ___ _ ___
 72
     65
 73
     4
 40
2.000000
 49
1.250000
 49
-0.250000
 49
0.250000
 49
-0.250000
  0
LTYPE
  2
BORDER
 70
     0
  3
___ ___ . ___ ___ . ___ ___
 72
     65
 73
     6
 40
1.750000
 49
0.500000
 49
-0.250000
 49
0.500000
 49
-0.250000
 49
0.000000
 49
-0.250000
  0
LTYPE
  2
DOT
 70
     0
  3
.................
 72
     65
 73
     2
 40
0.250000
 49
0.000000
 49
-0.250000
  0
LTYPE
  2
DASHDOT
 70
     0
  3
__ . __ . __ . __
 72
     65
 73
     4
 40
1.000000
 49
0.500000
 49
-0.250000
 49
0.000000
 49
-0.250000
  0
LTYPE
  2
DIVIDE
 70
     0
  3
___ .. ___ .. ___ .. ___
 72
     65
 73
     6
 40
1.250000
 49
0.500000
 49
-0.250000
 49
0.000000
 49
-0.250000
 49
0.000000
 49
-0.250000
  0
ENDTAB
  0
TABLE
  2
LAYER
 70
     8
  0
LAYER
  2
BLACK
 70
     0
 62
     1
  6
CONTINUOUS
  0
LAYER
  2
WHITE
 70
     0
 62
     7
  6
CONTINUOUS
  0
LAYER
  2
RED
 70
     0
 62
     1
  6
CONTINUOUS
  0
LAYER
  2
YELLOW
 70
     0
 62
     2
  6
CONTINUOUS
  0
LAYER
  2
GREEN
 70
     0
 62
     3
  6
CONTINUOUS
  0
LAYER
  2
CYAN
 70
     0
 62
     4
  6
CONTINUOUS
  0
LAYER
  2
BLUE
 70
     0
 62
     5
  6
CONTINUOUS
  0
LAYER
  2
MAGENTA
 70
     0
 62
     6
  6
CONTINUOUS
  0
ENDTAB
  0
TABLE
  2
APPID
 70
     1
  0
APPID
  2
TC_BEND_DATA
 70
     0
  0
ENDTAB
  0
ENDSEC
  0
SECTION
  2
BLOCKS
  0
ENDSEC
  0
SECTION
  2
ENTITIES
  0
LINE
  8
WHITE
 10
426.700000
 20
170.245751
 30
0.000000
 11
426.700000
 21
0.000000
 31
0.000000
  6
CONTINUOUS
  0
LINE
  8
WHITE
 10
426.700000
 20
0.000000
 30
0.000000
 11
0.000000
 21
0.000000
 31
0.000000
  6
CONTINUOUS
  0
LINE
  8
WHITE
 10
0.000000
 20
0.000000
 30
0.000000
 11
0.000000
 21
170.245751
 31
0.000000
  6
CONTINUOUS
  0
LINE
  8
WHITE
 10
0.000000
 20
170.245751
 30
0.000000
 11
426.700000
 21
170.245751
 31
0.000000
  6
CONTINUOUS
  0
LINE
  8
WHITE
 10
230.288174
 20
119.511645
 30
0.000000
 11
230.288174
 21
69.511645
 31
0.000000
  6
CONTINUOUS
  0
LINE
  8
WHITE
 10
230.288174
 20
69.511645
 30
0.000000
 11
299.288174
 21
69.511645
 31
0.000000
  6
CONTINUOUS
  0
LINE
  8
WHITE
 10
299.288174
 20
69.511645
 30
0.000000
 11
299.288174
 21
119.511645
 31
0.000000
  6
CONTINUOUS
  0
LINE
  8
WHITE
 10
299.288174
 20
119.511645
 30
0.000000
 11
230.288174
 21
119.511645
 31
0.000000
  6
CONTINUOUS
  0
LINE
  8
WHITE
 10
30.525379
 20
95.289399
 30
0.000000
 11
80.525379
 21
95.289399
 31
0.000000
  6
CONTINUOUS
  0
LINE
  8
WHITE
 10
80.525379
 20
95.289399
 30
0.000000
 11
80.525379
 21
116.289399
 31
0.000000
  6
CONTINUOUS
  0
LINE
  8
WHITE
 10
80.525379
 20
116.289399
 30
0.000000
 11
30.525379
 21
116.289399
 31
0.000000
  6
CONTINUOUS
  0
LINE
  8
WHITE
 10
30.525379
 20
116.289399
 30
0.000000
 11
30.525379
 21
95.289399
 31
0.000000
  6
CONTINUOUS
  0
CIRCLE
  8
WHITE
 10
30.895472
 20
29.059194
 30
0.000000
 40
13.500000
  6
CONTINUOUS
  0
CIRCLE
  8
WHITE
 10
137.642041
 20
149.372876
 30
0.000000
 40
9.000000
  6
CONTINUOUS
  0
CIRCLE
  8
WHITE
 10
163.428296
 20
149.372876
 30
0.000000
 40
9.000000
  6
CONTINUOUS
  0
LINE
  8
WHITE
 10
58.081353
 20
11.646368
 30
0.000000
 11
56.155083
 21
16.885861
 31
0.000000
  6
CONTINUOUS
  0
LINE
  8
WHITE
 10
56.155083
 20
16.885861
 30
0.000000
 11
56.163718
 21
22.430250
 31
0.000000
  6
CONTINUOUS
  0
LINE
  8
WHITE
 10
56.163718
 20
22.430250
 30
0.000000
 11
58.099859
 21
27.646368
 31
0.000000
  6
CONTINUOUS
  0
LINE
  8
WHITE
 10
58.099859
 20
27.646368
 30
0.000000
 11
69.227577
 21
27.646368
 31
0.000000
  6
CONTINUOUS
  0
LINE
  8
WHITE
 10
69.227577
 20
27.646368
 30
0.000000
 11
71.163718
 21
22.430250
 31
0.000000
  6
CONTINUOUS
  0
LINE
  8
WHITE
 10
71.163718
 20
22.430250
 30
0.000000
 11
71.163718
 21
16.889036
 31
0.000000
  6
CONTINUOUS
  0
LINE
  8
WHITE
 10
71.163718
 20
16.889036
 30
0.000000
 11
69.246084
 21
11.646368
 31
0.000000
  6
CONTINUOUS
  0
LINE
  8
WHITE
 10
69.246084
 20
11.646368
 30
0.000000
 11
58.081353
 21
11.646368
 31
0.000000
  6
CONTINUOUS
  0
LINE
  8
WHITE
 10
56.163718
 20
16.862485
 30
0.000000
 11
56.155083
 21
16.885861
 31
0.000000
  6
CONTINUOUS
  0
LINE
  8
WHITE
 10
81.081353
 20
11.646368
 30
0.000000
 11
79.155083
 21
16.885861
 31
0.000000
  6
CONTINUOUS
  0
LINE
  8
WHITE
 10
79.155083
 20
16.885861
 30
0.000000
 11
79.163718
 21
22.430250
 31
0.000000
  6
CONTINUOUS
  0
LINE
  8
WHITE
 10
79.163718
 20
22.430250
 30
0.000000
 11
81.099859
 21
27.646368
 31
0.000000
  6
CONTINUOUS
  0
LINE
  8
WHITE
 10
81.099859
 20
27.646368
 30
0.000000
 11
92.227577
 21
27.646368
 31
0.000000
  6
CONTINUOUS
  0
LINE
  8
WHITE
 10
92.227577
 20
27.646368
 30
0.000000
 11
94.163718
 21
22.430250
 31
0.000000
  6
CONTINUOUS
  0
LINE
  8
WHITE
 10
94.163718
 20
22.430250
 30
0.000000
 11
94.163718
 21
16.889036
 31
0.000000
  6
CONTINUOUS
  0
LINE
  8
WHITE
 10
94.163718
 20
16.889036
 30
0.000000
 11
92.246084
 21
11.646368
 31
0.000000
  6
CONTINUOUS
  0
LINE
  8
WHITE
 10
92.246084
 20
11.646368
 30
0.000000
 11
81.081353
 21
11.646368
 31
0.000000
  6
CONTINUOUS
  0
LINE
  8
WHITE
 10
79.163718
 20
16.862485
 30
0.000000
 11
79.155083
 21
16.885861
 31
0.000000
  6
CONTINUOUS
  0
LINE
  8
WHITE
 10
92.583877
 20
34.678756
 30
0.000000
 11
90.657608
 21
39.918250
 31
0.000000
  6
CONTINUOUS
  0
LINE
  8
WHITE
 10
90.657608
 20
39.918250
 30
0.000000
 11
90.666243
 21
45.462638
 31
0.000000
  6
CONTINUOUS
  0
LINE
  8
WHITE
 10
90.666243
 20
45.462638
 30
0.000000
 11
92.602384
 21
50.678756
 31
0.000000
  6
CONTINUOUS
  0
LINE
  8
WHITE
 10
92.602384
 20
50.678756
 30
0.000000
 11
103.730102
 21
50.678756
 31
0.000000
  6
CONTINUOUS
  0
LINE
  8
WHITE
 10
103.730102
 20
50.678756
 30
0.000000
 11
105.666243
 21
45.462638
 31
0.000000
  6
CONTINUOUS
  0
LINE
  8
WHITE
 10
105.666243
 20
45.462638
 30
0.000000
 11
105.666243
 21
39.921424
 31
0.000000
  6
CONTINUOUS
  0
LINE
  8
WHITE
 10
105.666243
 20
39.921424
 30
0.000000
 11
103.748609
 21
34.678756
 31
0.000000
  6
CONTINUOUS
  0
LINE
  8
WHITE
 10
103.748609
 20
34.678756
 30
0.000000
 11
92.583877
 21
34.678756
 31
0.000000
  6
CONTINUOUS
  0
LINE
  8
WHITE
 10
90.666243
 20
39.894874
 30
0.000000
 11
90.657608
 21
39.918250
 31
0.000000
  6
CONTINUOUS
  0
LINE
  8
WHITE
 10
104.081353
 20
11.646368
 30
0.000000
 11
102.155083
 21
16.885861
 31
0.000000
  6
CONTINUOUS
  0
LINE
  8
WHITE
 10
102.155083
 20
16.885861
 30
0.000000
 11
102.163718
 21
22.430250
 31
0.000000
  6
CONTINUOUS
  0
LINE
  8
WHITE
 10
102.163718
 20
22.430250
 30
0.000000
 11
104.099859
 21
27.646368
 31
0.000000
  6
CONTINUOUS
  0
LINE
  8
WHITE
 10
104.099859
 20
27.646368
 30
0.000000
 11
115.227577
 21
27.646368
 31
0.000000
  6
CONTINUOUS
  0
LINE
  8
WHITE
 10
115.227577
 20
27.646368
 30
0.000000
 11
117.163718
 21
22.430250
 31
0.000000
  6
CONTINUOUS
  0
LINE
  8
WHITE
 10
117.163718
 20
22.430250
 30
0.000000
 11
117.163718
 21
16.889036
 31
0.000000
  6
CONTINUOUS
  0
LINE
  8
WHITE
 10
117.163718
 20
16.889036
 30
0.000000
 11
115.246084
 21
11.646368
 31
0.000000
  6
CONTINUOUS
  0
LINE
  8
WHITE
 10
115.246084
 20
11.646368
 30
0.000000
 11
104.081353
 21
11.646368
 31
0.000000
  6
CONTINUOUS
  0
LINE
  8
WHITE
 10
102.163718
 20
16.862485
 30
0.000000
 11
102.155083
 21
16.885861
 31
0.000000
  6
CONTINUOUS
  0
LINE
  8
WHITE
 10
115.583877
 20
34.678756
 30
0.000000
 11
113.657608
 21
39.918250
 31
0.000000
  6
CONTINUOUS
  0
LINE
  8
WHITE
 10
113.657608
 20
39.918250
 30
0.000000
 11
113.666243
 21
45.462638
 31
0.000000
  6
CONTINUOUS
  0
LINE
  8
WHITE
 10
113.666243
 20
45.462638
 30
0.000000
 11
115.602384
 21
50.678756
 31
0.000000
  6
CONTINUOUS
  0
LINE
  8
WHITE
 10
115.602384
 20
50.678756
 30
0.000000
 11
126.730102
 21
50.678756
 31
0.000000
  6
CONTINUOUS
  0
LINE
  8
WHITE
 10
126.730102
 20
50.678756
 30
0.000000
 11
128.666243
 21
45.462638
 31
0.000000
  6
CONTINUOUS
  0
LINE
  8
WHITE
 10
128.666243
 20
45.462638
 30
0.000000
 11
128.666243
 21
39.921424
 31
0.000000
  6
CONTINUOUS
  0
LINE
  8
WHITE
 10
128.666243
 20
39.921424
 30
0.000000
 11
126.748609
 21
34.678756
 31
0.000000
  6
CONTINUOUS
  0
LINE
  8
WHITE
 10
126.748609
 20
34.678756
 30
0.000000
 11
115.583877
 21
34.678756
 31
0.000000
  6
CONTINUOUS
  0
LINE
  8
WHITE
 10
113.666243
 20
39.894874
 30
0.000000
 11
113.657608
 21
39.918250
 31
0.000000
  6
CONTINUOUS
  0
LINE
  8
WHITE
 10
127.081353
 20
11.646368
 30
0.000000
 11
125.155083
 21
16.885861
 31
0.000000
  6
CONTINUOUS
  0
LINE
  8
WHITE
 10
125.155083
 20
16.885861
 30
0.000000
 11
125.163718
 21
22.430250
 31
0.000000
  6
CONTINUOUS
  0
LINE
  8
WHITE
 10
125.163718
 20
22.430250
 30
0.000000
 11
127.099859
 21
27.646368
 31
0.000000
  6
CONTINUOUS
  0
LINE
  8
WHITE
 10
127.099859
 20
27.646368
 30
0.000000
 11
138.227577
 21
27.646368
 31
0.000000
  6
CONTINUOUS
  0
LINE
  8
WHITE
 10
138.227577
 20
27.646368
 30
0.000000
 11
140.163718
 21
22.430250
 31
0.000000
  6
CONTINUOUS
  0
LINE
  8
WHITE
 10
140.163718
 20
22.430250
 30
0.000000
 11
140.163718
 21
16.889036
 31
0.000000
  6
CONTINUOUS
  0
LINE
  8
WHITE
 10
140.163718
 20
16.889036
 30
0.000000
 11
138.246084
 21
11.646368
 31
0.000000
  6
CONTINUOUS
  0
LINE
  8
WHITE
 10
138.246084
 20
11.646368
 30
0.000000
 11
127.081353
 21
11.646368
 31
0.000000
  6
CONTINUOUS
  0
LINE
  8
WHITE
 10
125.163718
 20
16.862485
 30
0.000000
 11
125.155083
 21
16.885861
 31
0.000000
  6
CONTINUOUS
  0
LINE
  8
WHITE
 10
150.081353
 20
11.646368
 30
0.000000
 11
148.155083
 21
16.885861
 31
0.000000
  6
CONTINUOUS
  0
LINE
  8
WHITE
 10
148.155083
 20
16.885861
 30
0.000000
 11
148.163718
 21
22.430250
 31
0.000000
  6
CONTINUOUS
  0
LINE
  8
WHITE
 10
148.163718
 20
22.430250
 30
0.000000
 11
150.099859
 21
27.646368
 31
0.000000
  6
CONTINUOUS
  0
LINE
  8
WHITE
 10
150.099859
 20
27.646368
 30
0.000000
 11
161.227577
 21
27.646368
 31
0.000000
  6
CONTINUOUS
  0
LINE
  8
WHITE
 10
161.227577
 20
27.646368
 30
0.000000
 11
163.163718
 21
22.430250
 31
0.000000
  6
CONTINUOUS
  0
LINE
  8
WHITE
 10
163.163718
 20
22.430250
 30
0.000000
 11
163.163718
 21
16.889036
 31
0.000000
  6
CONTINUOUS
  0
LINE
  8
WHITE
 10
163.163718
 20
16.889036
 30
0.000000
 11
161.246084
 21
11.646368
 31
0.000000
  6
CONTINUOUS
  0
LINE
  8
WHITE
 10
161.246084
 20
11.646368
 30
0.000000
 11
150.081353
 21
11.646368
 31
0.000000
  6
CONTINUOUS
  0
LINE
  8
WHITE
 10
148.163718
 20
16.862485
 30
0.000000
 11
148.155083
 21
16.885861
 31
0.000000
  6
CONTINUOUS
  0
LINE
  8
WHITE
 10
161.583877
 20
34.678756
 30
0.000000
 11
159.657608
 21
39.918250
 31
0.000000
  6
CONTINUOUS
  0
LINE
  8
WHITE
 10
159.657608
 20
39.918250
 30
0.000000
 11
159.666243
 21
45.462638
 31
0.000000
  6
CONTINUOUS
  0
LINE
  8
WHITE
 10
159.666243
 20
45.462638
 30
0.000000
 11
161.602384
 21
50.678756
 31
0.000000
  6
CONTINUOUS
  0
LINE
  8
WHITE
 10
161.602384
 20
50.678756
 30
0.000000
 11
172.730102
 21
50.678756
 31
0.000000
  6
CONTINUOUS
  0
LINE
  8
WHITE
 10
172.730102
 20
50.678756
 30
0.000000
 11
174.666243
 21
45.462638
 31
0.000000
  6
CONTINUOUS
  0
LINE
  8
WHITE
 10
174.666243
 20
45.462638
 30
0.000000
 11
174.666243
 21
39.921424
 31
0.000000
  6
CONTINUOUS
  0
LINE
  8
WHITE
 10
174.666243
 20
39.921424
 30
0.000000
 11
172.748609
 21
34.678756
 31
0.000000
  6
CONTINUOUS
  0
LINE
  8
WHITE
 10
172.748609
 20
34.678756
 30
0.000000
 11
161.583877
 21
34.678756
 31
0.000000
  6
CONTINUOUS
  0
LINE
  8
WHITE
 10
159.666243
 20
39.894874
 30
0.000000
 11
159.657608
 21
39.918250
 31
0.000000
  6
CONTINUOUS
  0
LINE
  8
WHITE
 10
173.081353
 20
11.646368
 30
0.000000
 11
171.155083
 21
16.885861
 31
0.000000
  6
CONTINUOUS
  0
LINE
  8
WHITE
 10
171.155083
 20
16.885861
 30
0.000000
 11
171.163718
 21
22.430250
 31
0.000000
  6
CONTINUOUS
  0
LINE
  8
WHITE
 10
171.163718
 20
22.430250
 30
0.000000
 11
173.099859
 21
27.646368
 31
0.000000
  6
CONTINUOUS
  0
LINE
  8
WHITE
 10
173.099859
 20
27.646368
 30
0.000000
 11
184.227577
 21
27.646368
 31
0.000000
  6
CONTINUOUS
  0
LINE
  8
WHITE
 10
184.227577
 20
27.646368
 30
0.000000
 11
186.163718
 21
22.430250
 31
0.000000
  6
CONTINUOUS
  0
LINE
  8
WHITE
 10
186.163718
 20
22.430250
 30
0.000000
 11
186.163718
 21
16.889036
 31
0.000000
  6
CONTINUOUS
  0
LINE
  8
WHITE
 10
186.163718
 20
16.889036
 30
0.000000
 11
184.246084
 21
11.646368
 31
0.000000
  6
CONTINUOUS
  0
LINE
  8
WHITE
 10
184.246084
 20
11.646368
 30
0.000000
 11
173.081353
 21
11.646368
 31
0.000000
  6
CONTINUOUS
  0
LINE
  8
WHITE
 10
171.163718
 20
16.862485
 30
0.000000
 11
171.155083
 21
16.885861
 31
0.000000
  6
CONTINUOUS
  0
LINE
  8
WHITE
 10
184.583877
 20
34.678756
 30
0.000000
 11
182.657608
 21
39.918250
 31
0.000000
  6
CONTINUOUS
  0
LINE
  8
WHITE
 10
182.657608
 20
39.918250
 30
0.000000
 11
182.666243
 21
45.462638
 31
0.000000
  6
CONTINUOUS
  0
LINE
  8
WHITE
 10
182.666243
 20
45.462638
 30
0.000000
 11
184.602384
 21
50.678756
 31
0.000000
  6
CONTINUOUS
  0
LINE
  8
WHITE
 10
184.602384
 20
50.678756
 30
0.000000
 11
195.730102
 21
50.678756
 31
0.000000
  6
CONTINUOUS
  0
LINE
  8
WHITE
 10
195.730102
 20
50.678756
 30
0.000000
 11
197.666243
 21
45.462638
 31
0.000000
  6
CONTINUOUS
  0
LINE
  8
WHITE
 10
197.666243
 20
45.462638
 30
0.000000
 11
197.666243
 21
39.921424
 31
0.000000
  6
CONTINUOUS
  0
LINE
  8
WHITE
 10
197.666243
 20
39.921424
 30
0.000000
 11
195.748609
 21
34.678756
 31
0.000000
  6
CONTINUOUS
  0
LINE
  8
WHITE
 10
195.748609
 20
34.678756
 30
0.000000
 11
184.583877
 21
34.678756
 31
0.000000
  6
CONTINUOUS
  0
LINE
  8
WHITE
 10
182.666243
 20
39.894874
 30
0.000000
 11
182.657608
 21
39.918250
 31
0.000000
  6
CONTINUOUS
  0
LINE
  8
WHITE
 10
196.081353
 20
11.646368
 30
0.000000
 11
194.155083
 21
16.885861
 31
0.000000
  6
CONTINUOUS
  0
LINE
  8
WHITE
 10
194.155083
 20
16.885861
 30
0.000000
 11
194.163718
 21
22.430250
 31
0.000000
  6
CONTINUOUS
  0
LINE
  8
WHITE
 10
194.163718
 20
22.430250
 30
0.000000
 11
196.099859
 21
27.646368
 31
0.000000
  6
CONTINUOUS
  0
LINE
  8
WHITE
 10
196.099859
 20
27.646368
 30
0.000000
 11
207.227577
 21
27.646368
 31
0.000000
  6
CONTINUOUS
  0
LINE
  8
WHITE
 10
207.227577
 20
27.646368
 30
0.000000
 11
209.163718
 21
22.430250
 31
0.000000
  6
CONTINUOUS
  0
LINE
  8
WHITE
 10
209.163718
 20
22.430250
 30
0.000000
 11
209.163718
 21
16.889036
 31
0.000000
  6
CONTINUOUS
  0
LINE
  8
WHITE
 10
209.163718
 20
16.889036
 30
0.000000
 11
207.246084
 21
11.646368
 31
0.000000
  6
CONTINUOUS
  0
LINE
  8
WHITE
 10
207.246084
 20
11.646368
 30
0.000000
 11
196.081353
 21
11.646368
 31
0.000000
  6
CONTINUOUS
  0
LINE
  8
WHITE
 10
194.163718
 20
16.862485
 30
0.000000
 11
194.155083
 21
16.885861
 31
0.000000
  6
CONTINUOUS
  0
LINE
  8
WHITE
 10
207.583877
 20
34.678756
 30
0.000000
 11
205.657608
 21
39.918250
 31
0.000000
  6
CONTINUOUS
  0
LINE
  8
WHITE
 10
205.657608
 20
39.918250
 30
0.000000
 11
205.666243
 21
45.462638
 31
0.000000
  6
CONTINUOUS
  0
LINE
  8
WHITE
 10
205.666243
 20
45.462638
 30
0.000000
 11
207.602384
 21
50.678756
 31
0.000000
  6
CONTINUOUS
  0
LINE
  8
WHITE
 10
207.602384
 20
50.678756
 30
0.000000
 11
218.730102
 21
50.678756
 31
0.000000
  6
CONTINUOUS
  0
LINE
  8
WHITE
 10
218.730102
 20
50.678756
 30
0.000000
 11
220.666243
 21
45.462638
 31
0.000000
  6
CONTINUOUS
  0
LINE
  8
WHITE
 10
220.666243
 20
45.462638
 30
0.000000
 11
220.666243
 21
39.921424
 31
0.000000
  6
CONTINUOUS
  0
LINE
  8
WHITE
 10
220.666243
 20
39.921424
 30
0.000000
 11
218.748609
 21
34.678756
 31
0.000000
  6
CONTINUOUS
  0
LINE
  8
WHITE
 10
218.748609
 20
34.678756
 30
0.000000
 11
207.583877
 21
34.678756
 31
0.000000
  6
CONTINUOUS
  0
LINE
  8
WHITE
 10
205.666243
 20
39.894874
 30
0.000000
 11
205.657608
 21
39.918250
 31
0.000000
  6
CONTINUOUS
  0
LINE
  8
WHITE
 10
219.081353
 20
11.646368
 30
0.000000
 11
217.155083
 21
16.885861
 31
0.000000
  6
CONTINUOUS
  0
LINE
  8
WHITE
 10
217.155083
 20
16.885861
 30
0.000000
 11
217.163718
 21
22.430250
 31
0.000000
  6
CONTINUOUS
  0
LINE
  8
WHITE
 10
217.163718
 20
22.430250
 30
0.000000
 11
219.099859
 21
27.646368
 31
0.000000
  6
CONTINUOUS
  0
LINE
  8
WHITE
 10
219.099859
 20
27.646368
 30
0.000000
 11
230.227577
 21
27.646368
 31
0.000000
  6
CONTINUOUS
  0
LINE
  8
WHITE
 10
230.227577
 20
27.646368
 30
0.000000
 11
232.163718
 21
22.430250
 31
0.000000
  6
CONTINUOUS
  0
LINE
  8
WHITE
 10
232.163718
 20
22.430250
 30
0.000000
 11
232.163718
 21
16.889036
 31
0.000000
  6
CONTINUOUS
  0
LINE
  8
WHITE
 10
232.163718
 20
16.889036
 30
0.000000
 11
230.246084
 21
11.646368
 31
0.000000
  6
CONTINUOUS
  0
LINE
  8
WHITE
 10
230.246084
 20
11.646368
 30
0.000000
 11
219.081353
 21
11.646368
 31
0.000000
  6
CONTINUOUS
  0
LINE
  8
WHITE
 10
217.163718
 20
16.862485
 30
0.000000
 11
217.155083
 21
16.885861
 31
0.000000
  6
CONTINUOUS
  0
LINE
  8
WHITE
 10
242.081353
 20
11.646368
 30
0.000000
 11
240.155083
 21
16.885861
 31
0.000000
  6
CONTINUOUS
  0
LINE
  8
WHITE
 10
240.155083
 20
16.885861
 30
0.000000
 11
240.163718
 21
22.430250
 31
0.000000
  6
CONTINUOUS
  0
LINE
  8
WHITE
 10
240.163718
 20
22.430250
 30
0.000000
 11
242.099859
 21
27.646368
 31
0.000000
  6
CONTINUOUS
  0
LINE
  8
WHITE
 10
242.099859
 20
27.646368
 30
0.000000
 11
253.227577
 21
27.646368
 31
0.000000
  6
CONTINUOUS
  0
LINE
  8
WHITE
 10
253.227577
 20
27.646368
 30
0.000000
 11
255.163718
 21
22.430250
 31
0.000000
  6
CONTINUOUS
  0
LINE
  8
WHITE
 10
255.163718
 20
22.430250
 30
0.000000
 11
255.163718
 21
16.889036
 31
0.000000
  6
CONTINUOUS
  0
LINE
  8
WHITE
 10
255.163718
 20
16.889036
 30
0.000000
 11
253.246084
 21
11.646368
 31
0.000000
  6
CONTINUOUS
  0
LINE
  8
WHITE
 10
253.246084
 20
11.646368
 30
0.000000
 11
242.081353
 21
11.646368
 31
0.000000
  6
CONTINUOUS
  0
LINE
  8
WHITE
 10
240.163718
 20
16.862485
 30
0.000000
 11
240.155083
 21
16.885861
 31
0.000000
  6
CONTINUOUS
  0
LINE
  8
WHITE
 10
265.081353
 20
11.646368
 30
0.000000
 11
263.155083
 21
16.885861
 31
0.000000
  6
CONTINUOUS
  0
LINE
  8
WHITE
 10
263.155083
 20
16.885861
 30
0.000000
 11
263.163718
 21
22.430250
 31
0.000000
  6
CONTINUOUS
  0
LINE
  8
WHITE
 10
263.163718
 20
22.430250
 30
0.000000
 11
265.099859
 21
27.646368
 31
0.000000
  6
CONTINUOUS
  0
LINE
  8
WHITE
 10
265.099859
 20
27.646368
 30
0.000000
 11
276.227577
 21
27.646368
 31
0.000000
  6
CONTINUOUS
  0
LINE
  8
WHITE
 10
276.227577
 20
27.646368
 30
0.000000
 11
278.163718
 21
22.430250
 31
0.000000
  6
CONTINUOUS
  0
LINE
  8
WHITE
 10
278.163718
 20
22.430250
 30
0.000000
 11
278.163718
 21
16.889036
 31
0.000000
  6
CONTINUOUS
  0
LINE
  8
WHITE
 10
278.163718
 20
16.889036
 30
0.000000
 11
276.246084
 21
11.646368
 31
0.000000
  6
CONTINUOUS
  0
LINE
  8
WHITE
 10
276.246084
 20
11.646368
 30
0.000000
 11
265.081353
 21
11.646368
 31
0.000000
  6
CONTINUOUS
  0
LINE
  8
WHITE
 10
263.163718
 20
16.862485
 30
0.000000
 11
263.155083
 21
16.885861
 31
0.000000
  6
CONTINUOUS
  0
LINE
  8
WHITE
 10
349.911337
 20
22.207560
 30
0.000000
 11
349.911337
 21
12.207560
 31
0.000000
  6
CONTINUOUS
  0
LINE
  8
WHITE
 10
349.911337
 20
12.207560
 30
0.000000
 11
359.911337
 21
12.207560
 31
0.000000
  6
CONTINUOUS
  0
LINE
  8
WHITE
 10
359.911337
 20
12.207560
 30
0.000000
 11
359.911337
 21
22.207560
 31
0.000000
  6
CONTINUOUS
  0
LINE
  8
WHITE
 10
359.911337
 20
22.207560
 30
0.000000
 11
349.911337
 21
22.207560
 31
0.000000
  6
CONTINUOUS
  0
LINE
  8
WHITE
 10
349.911337
 20
37.207560
 30
0.000000
 11
349.911337
 21
27.207560
 31
0.000000
  6
CONTINUOUS
  0
LINE
  8
WHITE
 10
349.911337
 20
27.207560
 30
0.000000
 11
359.911337
 21
27.207560
 31
0.000000
  6
CONTINUOUS
  0
LINE
  8
WHITE
 10
359.911337
 20
27.207560
 30
0.000000
 11
359.911337
 21
37.207560
 31
0.000000
  6
CONTINUOUS
  0
LINE
  8
WHITE
 10
359.911337
 20
37.207560
 30
0.000000
 11
349.911337
 21
37.207560
 31
0.000000
  6
CONTINUOUS
  0
LINE
  8
WHITE
 10
349.911337
 20
52.207560
 30
0.000000
 11
349.911337
 21
42.207560
 31
0.000000
  6
CONTINUOUS
  0
LINE
  8
WHITE
 10
349.911337
 20
42.207560
 30
0.000000
 11
359.911337
 21
42.207560
 31
0.000000
  6
CONTINUOUS
  0
LINE
  8
WHITE
 10
359.911337
 20
42.207560
 30
0.000000
 11
359.911337
 21
52.207560
 31
0.000000
  6
CONTINUOUS
  0
LINE
  8
WHITE
 10
359.911337
 20
52.207560
 30
0.000000
 11
349.911337
 21
52.207560
 31
0.000000
  6
CONTINUOUS
  0
LINE
  8
WHITE
 10
349.911337
 20
67.207560
 30
0.000000
 11
349.911337
 21
57.207560
 31
0.000000
  6
CONTINUOUS
  0
LINE
  8
WHITE
 10
349.911337
 20
57.207560
 30
0.000000
 11
359.911337
 21
57.207560
 31
0.000000
  6
CONTINUOUS
  0
LINE
  8
WHITE
 10
359.911337
 20
57.207560
 30
0.000000
 11
359.911337
 21
67.207560
 31
0.000000
  6
CONTINUOUS
  0
LINE
  8
WHITE
 10
359.911337
 20
67.207560
 30
0.000000
 11
349.911337
 21
67.207560
 31
0.000000
  6
CONTINUOUS
  0
LINE
  8
WHITE
 10
364.911337
 20
22.207560
 30
0.000000
 11
364.911337
 21
12.207560
 31
0.000000
  6
CONTINUOUS
  0
LINE
  8
WHITE
 10
364.911337
 20
12.207560
 30
0.000000
 11
374.911337
 21
12.207560
 31
0.000000
  6
CONTINUOUS
  0
LINE
  8
WHITE
 10
374.911337
 20
12.207560
 30
0.000000
 11
374.911337
 21
22.207560
 31
0.000000
  6
CONTINUOUS
  0
LINE
  8
WHITE
 10
374.911337
 20
22.207560
 30
0.000000
 11
364.911337
 21
22.207560
 31
0.000000
  6
CONTINUOUS
  0
LINE
  8
WHITE
 10
364.911337
 20
37.207560
 30
0.000000
 11
364.911337
 21
27.207560
 31
0.000000
  6
CONTINUOUS
  0
LINE
  8
WHITE
 10
364.911337
 20
27.207560
 30
0.000000
 11
374.911337
 21
27.207560
 31
0.000000
  6
CONTINUOUS
  0
LINE
  8
WHITE
 10
374.911337
 20
27.207560
 30
0.000000
 11
374.911337
 21
37.207560
 31
0.000000
  6
CONTINUOUS
  0
LINE
  8
WHITE
 10
374.911337
 20
37.207560
 30
0.000000
 11
364.911337
 21
37.207560
 31
0.000000
  6
CONTINUOUS
  0
LINE
  8
WHITE
 10
364.911337
 20
52.207560
 30
0.000000
 11
364.911337
 21
42.207560
 31
0.000000
  6
CONTINUOUS
  0
LINE
  8
WHITE
 10
364.911337
 20
42.207560
 30
0.000000
 11
374.911337
 21
42.207560
 31
0.000000
  6
CONTINUOUS
  0
LINE
  8
WHITE
 10
374.911337
 20
42.207560
 30
0.000000
 11
374.911337
 21
52.207560
 31
0.000000
  6
CONTINUOUS
  0
LINE
  8
WHITE
 10
374.911337
 20
52.207560
 30
0.000000
 11
364.911337
 21
52.207560
 31
0.000000
  6
CONTINUOUS
  0
LINE
  8
WHITE
 10
364.911337
 20
67.207560
 30
0.000000
 11
364.911337
 21
57.207560
 31
0.000000
  6
CONTINUOUS
  0
LINE
  8
WHITE
 10
364.911337
 20
57.207560
 30
0.000000
 11
374.911337
 21
57.207560
 31
0.000000
  6
CONTINUOUS
  0
LINE
  8
WHITE
 10
374.911337
 20
57.207560
 30
0.000000
 11
374.911337
 21
67.207560
 31
0.000000
  6
CONTINUOUS
  0
LINE
  8
WHITE
 10
374.911337
 20
67.207560
 30
0.000000
 11
364.911337
 21
67.207560
 31
0.000000
  6
CONTINUOUS
  0
LINE
  8
WHITE
 10
379.911337
 20
22.207560
 30
0.000000
 11
379.911337
 21
12.207560
 31
0.000000
  6
CONTINUOUS
  0
LINE
  8
WHITE
 10
379.911337
 20
12.207560
 30
0.000000
 11
389.911337
 21
12.207560
 31
0.000000
  6
CONTINUOUS
  0
LINE
  8
WHITE
 10
389.911337
 20
12.207560
 30
0.000000
 11
389.911337
 21
22.207560
 31
0.000000
  6
CONTINUOUS
  0
LINE
  8
WHITE
 10
389.911337
 20
22.207560
 30
0.000000
 11
379.911337
 21
22.207560
 31
0.000000
  6
CONTINUOUS
  0
LINE
  8
WHITE
 10
379.911337
 20
37.207560
 30
0.000000
 11
379.911337
 21
27.207560
 31
0.000000
  6
CONTINUOUS
  0
LINE
  8
WHITE
 10
379.911337
 20
27.207560
 30
0.000000
 11
389.911337
 21
27.207560
 31
0.000000
  6
CONTINUOUS
  0
LINE
  8
WHITE
 10
389.911337
 20
27.207560
 30
0.000000
 11
389.911337
 21
37.207560
 31
0.000000
  6
CONTINUOUS
  0
LINE
  8
WHITE
 10
389.911337
 20
37.207560
 30
0.000000
 11
379.911337
 21
37.207560
 31
0.000000
  6
CONTINUOUS
  0
LINE
  8
WHITE
 10
379.911337
 20
52.207560
 30
0.000000
 11
379.911337
 21
42.207560
 31
0.000000
  6
CONTINUOUS
  0
LINE
  8
WHITE
 10
379.911337
 20
42.207560
 30
0.000000
 11
389.911337
 21
42.207560
 31
0.000000
  6
CONTINUOUS
  0
LINE
  8
WHITE
 10
389.911337
 20
42.207560
 30
0.000000
 11
389.911337
 21
52.207560
 31
0.000000
  6
CONTINUOUS
  0
LINE
  8
WHITE
 10
389.911337
 20
52.207560
 30
0.000000
 11
379.911337
 21
52.207560
 31
0.000000
  6
CONTINUOUS
  0
LINE
  8
WHITE
 10
379.911337
 20
67.207560
 30
0.000000
 11
379.911337
 21
57.207560
 31
0.000000
  6
CONTINUOUS
  0
LINE
  8
WHITE
 10
379.911337
 20
57.207560
 30
0.000000
 11
389.911337
 21
57.207560
 31
0.000000
  6
CONTINUOUS
  0
LINE
  8
WHITE
 10
389.911337
 20
57.207560
 30
0.000000
 11
389.911337
 21
67.207560
 31
0.000000
  6
CONTINUOUS
  0
LINE
  8
WHITE
 10
389.911337
 20
67.207560
 30
0.000000
 11
379.911337
 21
67.207560
 31
0.000000
  6
CONTINUOUS
  0
LINE
  8
WHITE
 10
394.911337
 20
22.207560
 30
0.000000
 11
394.911337
 21
12.207560
 31
0.000000
  6
CONTINUOUS
  0
LINE
  8
WHITE
 10
394.911337
 20
12.207560
 30
0.000000
 11
404.911337
 21
12.207560
 31
0.000000
  6
CONTINUOUS
  0
LINE
  8
WHITE
 10
404.911337
 20
12.207560
 30
0.000000
 11
404.911337
 21
22.207560
 31
0.000000
  6
CONTINUOUS
  0
LINE
  8
WHITE
 10
404.911337
 20
22.207560
 30
0.000000
 11
394.911337
 21
22.207560
 31
0.000000
  6
CONTINUOUS
  0
LINE
  8
WHITE
 10
394.911337
 20
37.207560
 30
0.000000
 11
394.911337
 21
27.207560
 31
0.000000
  6
CONTINUOUS
  0
LINE
  8
WHITE
 10
394.911337
 20
27.207560
 30
0.000000
 11
404.911337
 21
27.207560
 31
0.000000
  6
CONTINUOUS
  0
LINE
  8
WHITE
 10
404.911337
 20
27.207560
 30
0.000000
 11
404.911337
 21
37.207560
 31
0.000000
  6
CONTINUOUS
  0
LINE
  8
WHITE
 10
404.911337
 20
37.207560
 30
0.000000
 11
394.911337
 21
37.207560
 31
0.000000
  6
CONTINUOUS
  0
LINE
  8
WHITE
 10
394.911337
 20
52.207560
 30
0.000000
 11
394.911337
 21
42.207560
 31
0.000000
  6
CONTINUOUS
  0
LINE
  8
WHITE
 10
394.911337
 20
42.207560
 30
0.000000
 11
404.911337
 21
42.207560
 31
0.000000
  6
CONTINUOUS
  0
LINE
  8
WHITE
 10
404.911337
 20
42.207560
 30
0.000000
 11
404.911337
 21
52.207560
 31
0.000000
  6
CONTINUOUS
  0
LINE
  8
WHITE
 10
404.911337
 20
52.207560
 30
0.000000
 11
394.911337
 21
52.207560
 31
0.000000
  6
CONTINUOUS
  0
LINE
  8
WHITE
 10
394.911337
 20
67.207560
 30
0.000000
 11
394.911337
 21
57.207560
 31
0.000000
  6
CONTINUOUS
  0
LINE
  8
WHITE
 10
394.911337
 20
57.207560
 30
0.000000
 11
404.911337
 21
57.207560
 31
0.000000
  6
CONTINUOUS
  0
LINE
  8
WHITE
 10
404.911337
 20
57.207560
 30
0.000000
 11
404.911337
 21
67.207560
 31
0.000000
  6
CONTINUOUS
  0
LINE
  8
WHITE
 10
404.911337
 20
67.207560
 30
0.000000
 11
394.911337
 21
67.207560
 31
0.000000
  6
CONTINUOUS
  0
CIRCLE
  8
WHITE
 10
110.661925
 20
105.789399
 30
0.000000
 40
5.000000
  6
CONTINUOUS
  0
CIRCLE
  8
WHITE
 10
133.661925
 20
105.789399
 30
0.000000
 40
5.000000
  6
CONTINUOUS
  0
CIRCLE
  8
WHITE
 10
156.661925
 20
105.789399
 30
0.000000
 40
5.000000
  6
CONTINUOUS
  0
CIRCLE
  8
WHITE
 10
179.661925
 20
105.789399
 30
0.000000
 40
5.000000
  6
CONTINUOUS
  0
CIRCLE
  8
WHITE
 10
202.661925
 20
105.789399
 30
0.000000
 40
5.000000
  6
CONTINUOUS
  0
CIRCLE
  8
WHITE
 10
32.254741
 20
149.372876
 30
0.000000
 40
4.500000
  6
CONTINUOUS
  0
CIRCLE
  8
WHITE
 10
61.628648
 20
149.372876
 30
0.000000
 40
4.500000
  6
CONTINUOUS
  0
CIRCLE
  8
WHITE
 10
82.706108
 20
149.372876
 30
0.000000
 40
4.500000
  6
CONTINUOUS
  0
CIRCLE
  8
WHITE
 10
103.335112
 20
149.372876
 30
0.000000
 40
4.500000
  6
CONTINUOUS
  0
CIRCLE
  8
WHITE
 10
15.108625
 20
105.789399
 30
0.000000
 40
4.000000
  6
CONTINUOUS
  0
CIRCLE
  8
WHITE
 10
371.960614
 20
149.372876
 30
0.000000
 40
4.000000
  6
CONTINUOUS
  0
CIRCLE
  8
WHITE
 10
110.661925
 20
62.733936
 30
0.000000
 40
3.500000
  6
CONTINUOUS
  0
CIRCLE
  8
WHITE
 10
110.661925
 20
82.151105
 30
0.000000
 40
3.500000
  6
CONTINUOUS
  0
CIRCLE
  8
WHITE
 10
133.661925
 20
62.733936
 30
0.000000
 40
3.500000
  6
CONTINUOUS
  0
CIRCLE
  8
WHITE
 10
133.661925
 20
82.151105
 30
0.000000
 40
3.500000
  6
CONTINUOUS
  0
CIRCLE
  8
WHITE
 10
156.661925
 20
62.733936
 30
0.000000
 40
3.500000
  6
CONTINUOUS
  0
CIRCLE
  8
WHITE
 10
156.661925
 20
82.151105
 30
0.000000
 40
3.500000
  6
CONTINUOUS
  0
CIRCLE
  8
WHITE
 10
179.661925
 20
62.733936
 30
0.000000
 40
3.500000
  6
CONTINUOUS
  0
CIRCLE
  8
WHITE
 10
179.661925
 20
82.151105
 30
0.000000
 40
3.500000
  6
CONTINUOUS
  0
CIRCLE
  8
WHITE
 10
202.661925
 20
62.733936
 30
0.000000
 40
3.500000
  6
CONTINUOUS
  0
CIRCLE
  8
WHITE
 10
202.661925
 20
82.151105
 30
0.000000
 40
3.500000
  6
CONTINUOUS
  0
CIRCLE
  8
WHITE
 10
12.522650
 20
149.372876
 30
0.000000
 40
3.000000
  6
CONTINUOUS
  0
CIRCLE
  8
WHITE
 10
186.748039
 20
149.372876
 30
0.000000
 40
3.000000
  6
CONTINUOUS
  0
CIRCLE
  8
WHITE
 10
199.304824
 20
149.372876
 30
0.000000
 40
3.000000
  6
CONTINUOUS
  0
CIRCLE
  8
WHITE
 10
213.350000
 20
149.372876
 30
0.000000
 40
3.000000
  6
CONTINUOUS
  0
CIRCLE
  8
WHITE
 10
340.209237
 20
97.832564
 30
0.000000
 40
3.000000
  6
CONTINUOUS
  0
CIRCLE
  8
WHITE
 10
340.209237
 20
97.832564
 30
0.000000
 40
3.000000
  6
DOT
  0
CIRCLE
  8
WHITE
 10
356.209237
 20
97.832564
 30
0.000000
 40
3.000000
  6
CONTINUOUS
  0
CIRCLE
  8
WHITE
 10
356.209237
 20
97.832564
 30
0.000000
 40
3.000000
  6
DOT
  0
CIRCLE
  8
WHITE
 10
372.209237
 20
97.832564
 30
0.000000
 40
3.000000
  6
CONTINUOUS
  0
CIRCLE
  8
WHITE
 10
372.209237
 20
97.832564
 30
0.000000
 40
3.000000
  6
DOT
  0
CIRCLE
  8
WHITE
 10
388.209237
 20
97.832564
 30
0.000000
 40
3.000000
  6
CONTINUOUS
  0
CIRCLE
  8
WHITE
 10
388.209237
 20
97.832564
 30
0.000000
 40
3.000000
  6
DOT
  0
CIRCLE
  8
WHITE
 10
404.209237
 20
97.832564
 30
0.000000
 40
3.000000
  6
DOT
  0
CIRCLE
  8
WHITE
 10
404.209237
 20
97.832564
 30
0.000000
 40
3.000000
  6
CONTINUOUS
  0
CIRCLE
  8
WHITE
 10
7.500000
 20
3.000000
 30
0.000000
 40
1.600000
  6
CONTINUOUS
  0
CIRCLE
  8
WHITE
 10
7.500000
 20
125.500000
 30
0.000000
 40
1.600000
  6
CONTINUOUS
  0
CIRCLE
  8
WHITE
 10
419.200000
 20
3.000000
 30
0.000000
 40
1.600000
  6
CONTINUOUS
  0
CIRCLE
  8
WHITE
 10
419.200000
 20
125.500000
 30
0.000000
 40
1.600000
  6
CONTINUOUS
  0
CIRCLE
  8
WHITE
 10
15.895472
 20
14.059194
 30
0.000000
 40
1.500000
  6
CONTINUOUS
  0
CIRCLE
  8
WHITE
 10
15.895472
 20
44.059194
 30
0.000000
 40
1.500000
  6
CONTINUOUS
  0
CIRCLE
  8
WHITE
 10
45.895472
 20
14.059194
 30
0.000000
 40
1.500000
  6
CONTINUOUS
  0
CIRCLE
  8
WHITE
 10
45.895472
 20
44.059194
 30
0.000000
 40
1.500000
  6
CONTINUOUS
  0
CIRCLE
  8
WHITE
 10
226.038174
 20
67.039500
 30
0.000000
 40
1.250000
  6
CONTINUOUS
  0
CIRCLE
  8
WHITE
 10
226.038174
 20
115.539500
 30
0.000000
 40
1.250000
  6
CONTINUOUS
  0
CIRCLE
  8
WHITE
 10
303.538174
 20
115.539500
 30
0.000000
 40
1.250000
  6
CONTINUOUS
  0
CIRCLE
  8
WHITE
 10
32.025379
 20
93.289399
 30
0.000000
 40
0.750000
  6
CONTINUOUS
  0
CIRCLE
  8
WHITE
 10
32.025379
 20
118.289399
 30
0.000000
 40
0.750000
  6
CONTINUOUS
  0
CIRCLE
  8
WHITE
 10
79.025379
 20
93.289399
 30
0.000000
 40
0.750000
  6
CONTINUOUS
  0
CIRCLE
  8
WHITE
 10
79.025379
 20
118.289399
 30
0.000000
 40
0.750000
  6
CONTINUOUS
  0
CIRCLE
  8
WHITE
 10
362.411337
 20
24.707560
 30
0.000000
 40
0.750000
  6
CONTINUOUS
  0
CIRCLE
  8
WHITE
 10
362.411337
 20
54.707560
 30
0.000000
 40
0.750000
  6
CONTINUOUS
  0
CIRCLE
  8
WHITE
 10
392.411337
 20
24.707560
 30
0.000000
 40
0.750000
  6
CONTINUOUS
  0
CIRCLE
  8
WHITE
 10
392.411337
 20
54.707560
 30
0.000000
 40
0.750000
  6
CONTINUOUS
  0
ENDSEC
  0
EOF
